# xmcd
#
# Track frame offsets:
#	150
#	26205
#	55781
#	71396
#	97640
#	118851
#	156674
#	183097
#	210904
#	225922
#	241331
#	270565
#	287480
#	317504
#
# Disc length: 4717 seconds
#
# Revision: 1
# Processed by: cddbd v1.4PL0 Copyright (c) Steve Scherf et al.
# Submitted via: audiograbber 1.82.01
#
DISCID=b0126b0e
DTITLE=Yurik - Жажда Скорости - Мега выпуск
DYEAR=2003
DGENRE=
TTITLE0=DJ  Mad - Lost In Love 
TTITLE1=666 - Rhythm Takes Control
TTITLE2=Don kee Do - Sunfise At Home
TTITLE3=DJ Ciccio - Zulu Dance
TTITLE4=Essential inc.. - Don't Stop Now
TTITLE5=Scotty - Magic Melody
TTITLE6=J. Van os - Let The Leaves
TTITLE7=Leit - Motiv - To Deserve You
TTITLE8=M. Maris - So Blue
TTITLE9=John de Ado - Right On
TTITLE10=S. Oldfield - Mirrors
TTITLE11=T. Kay - Welcome
TTITLE12=Smokejumper - Beside (Club Mix)
TTITLE13=The Pumpers - Get Down
EXTD=
EXTT0=
EXTT1=
EXTT2=
EXTT3=
EXTT4=
EXTT5=
EXTT6=
EXTT7=
EXTT8=
EXTT9=
EXTT10=
EXTT11=
EXTT12=
EXTT13=
PLAYORDER=
